Coordinates
version=1
nRows=14
nColumns=36
inDegrees=yes

Units are S.I. units (second, meters, Newtons, ...)
If the header above contains a line with 'inDegrees', this indicates whether rotational values are in degrees (yes) or radians (no).

endheader
time	pelvis_tilt	pelvis_list	pelvis_rotation	pelvis_tx	pelvis_ty	pelvis_tz	hip_flexion_r	hip_adduction_r	hip_rotation_r	knee_angle_r	knee_angle_r_beta	ankle_angle_r	subtalar_angle_r	mtp_angle_r	hip_flexion_l	hip_adduction_l	hip_rotation_l	knee_angle_l	knee_angle_l_beta	ankle_angle_l	subtalar_angle_l	mtp_angle_l	lumbar_extension	lumbar_bending	lumbar_rotation	arm_flex_r	arm_add_r	arm_rot_r	elbow_flex_r	pro_sup_r	arm_flex_l	arm_add_l	arm_rot_l	elbow_flex_l	pro_sup_l
      6.98333330	      5.43983395	     15.11996661	      1.52398572	     -0.16145266	      0.94435735	      0.17926716	      6.40270614	     -7.07483991	      2.07693160	     18.11598462	      0.31618358	     13.86432589	      3.84891922	     -7.49999987	     55.50822407	     -0.93365391	    -12.13093934	     15.94100015	      0.27822294	    -18.20218690	      1.21488585	     -7.49999987	    -22.15391055	    -10.02971627	      3.11605106	     57.85761131	     21.82119196	     73.07380017	    132.47164398	     97.76033019	     72.58187838	     24.01773303	     71.18141959	    123.80638381	     70.84598889
      7.00000000	      5.47680842	     15.09465811	      1.39364557	     -0.16077379	      0.94640734	      0.17691432	      5.74355723	     -7.21496891	      1.62054446	     16.96103069	      0.29602583	     13.32816097	      4.35506909	     -7.49999987	     55.65283903	     -1.12844251	    -12.21619220	     16.27091351	      0.28398101	    -17.99906104	      1.66049812	     -7.49999987	    -21.79394643	    -10.12097663	      3.53387924	     57.82723908	     21.89181135	     73.68573317	    132.92029306	     97.73880929	     72.34542504	     24.12040785	     71.42977207	    123.49438781	     70.61598246
      7.01666670	      5.75742084	     14.91930561	      1.06249997	     -0.15871348	      0.94522560	      0.17707523	      5.16314095	     -7.09845584	      1.34135618	     16.66513378	      0.29086145	     13.07189689	      4.88041316	     -7.49999987	     55.72640860	     -1.49949256	    -12.05182031	     16.83642106	      0.29385098	    -17.39234083	      1.94243694	     -7.49999987	    -21.57925361	    -10.13599652	      3.95903580	     57.73162465	     22.00175226	     74.49045172	    133.15927395	     97.32641909	     72.06151930	     24.34199900	     71.78134050	    123.36386565	     70.30198627
      7.03333330	      6.12366730	     14.64519964	      0.68988688	     -0.15688821	      0.94836493	      0.17702161	      4.55187063	     -6.87353068	      1.32419203	     16.52339737	      0.28838769	     13.15355801	      5.16494694	     -7.49999987	     55.33510312	     -1.98651465	    -12.04762258	     17.06993163	      0.29792651	    -17.07617600	      2.14449890	     -7.49999987	    -21.46254722	     -9.91773554	      4.50684915	     57.55477054	     21.89485700	     75.18777669	    133.15914668	     97.03176293	     71.72131637	     24.48210278	     72.10704039	    123.28963953	     70.08403693
      7.05000000	      6.30530931	     14.51628786	      0.72222705	     -0.15196650	      0.94554607	      0.17481512	      4.18697417	     -6.81783506	      1.09183926	     16.45015803	      0.28710942	     13.50443239	      5.63932704	     -7.49999987	     55.26772319	     -2.08720175	    -11.88981055	     17.85702726	      0.31166392	    -16.41728660	      1.89213607	     -7.49999987	    -21.39476157	     -9.69172929	      4.76503583	     57.41589372	     21.48591622	     75.27192723	    133.29708704	     97.19744287	     71.64093203	     24.87353565	     72.41584705	    123.49104275	     70.04065080
      7.06666670	      6.50216017	     14.34728491	      0.56381317	     -0.15418808	      0.94532248	      0.17466060	      4.17797459	     -6.68010469	      1.10224003	     16.96197661	      0.29604234	     13.87015006	      5.74285160	     -7.49999987	     55.18558119	     -2.22463893	    -11.79485969	     18.33886532	      0.32007358	    -16.09659913	      1.70842517	     -7.49999987	    -21.12976240	     -9.51337298	      5.17366992	     57.46075728	     21.09411353	     75.11924001	    133.46947883	     96.40413712	     71.20964533	     25.15897507	     72.50502419	    123.69426738	     69.73987122
      7.08333330	      6.77145691	     14.11160547	      0.45244386	     -0.15418135	      0.94078179	      0.17377428	      4.11043960	     -6.49362734	      0.98872861	     17.79476791	      0.31057729	     14.49841820	      5.88417499	     -7.49999987	     55.19239322	     -2.37780459	    -11.54868261	     19.25469226	      0.33605778	    -15.56309197	      1.59595259	     -7.49999987	    -21.05057522	     -9.26013662	      5.36792842	     58.02534963	     20.92499718	     74.92125551	    133.52997687	     96.52413884	     71.45508128	     25.41949843	     72.44176857	    123.63509670	     69.72367480
      7.10000000	      6.69597303	     13.88328557	      0.25229869	     -0.15204009	      0.94289474	      0.17421212	      4.11118989	     -6.31554532	      0.92739120	     17.97783107	      0.31377234	     14.97540488	      6.37011517	     -7.49999987	     55.12121540	     -2.57162417	    -11.46106271	     19.90616124	      0.34742806	    -15.22562178	      1.56731783	     -7.49999987	    -20.71538852	     -8.99925832	      5.76965745	     57.92655767	     20.83412134	     74.82478829	    133.50023634	     99.08661740	     71.12182560	     25.61900157	     72.54530390	    123.87290569	     69.20548461
      7.11666670	      6.52956876	     13.84333035	      0.15773791	     -0.15290170	      0.94050753	      0.17343123	      4.06698134	     -6.31826656	      0.82374514	     17.64271363	      0.30792344	     15.10787350	      6.56486148	     -7.49999987	     55.15352126	     -2.52069511	    -11.31696043	     20.43191193	      0.35660414	    -14.77457964	      1.62938021	     -7.49999987	    -20.28286584	     -9.00013334	      5.75201607	     57.63823344	     21.00135213	     75.04769783	    133.46997978	     99.12947680	     70.94033635	     25.55098850	     72.48362150	    123.91355771	     69.15899744
      7.13333330	      6.45328753	     13.64805025	     -0.10525924	     -0.14887473	      0.94122655	      0.17340732	      4.08171211	     -6.10064854	      1.08977848	     17.49928242	      0.30542010	     15.21485230	      6.70177011	     -7.49999987	     54.93281329	     -2.63662638	    -10.97416952	     20.81618273	      0.36331093	    -14.13563939	      1.62429236	     -7.49999987	    -19.86257118	     -8.94839422	      5.73961276	     57.30367214	     21.05381044	     75.20024123	    133.51324774	     98.43073535	     70.53572259	     25.12996563	     72.25711954	    123.92581951	     68.87977834
      7.15000000	      6.31518703	     13.38264670	     -0.20222629	     -0.15114026	      0.94334824	      0.17374844	      4.14470767	     -5.80745027	      0.93723720	     17.28310517	      0.30164709	     15.05524405	      6.89352453	     -7.49999987	     54.48460525	     -2.61774275	    -10.60493958	     20.79718346	      0.36297933	    -13.62892503	      2.03286449	     -7.49999987	    -19.63292661	     -8.75298859	      5.60261013	     57.03204459	     21.21079167	     75.88108451	    133.51398276	     97.69751813	     70.14728307	     24.88824785	     72.41881211	    124.12942782	     68.61909672
      7.16666670	      6.22342793	     12.91667848	     -0.27092489	     -0.14679987	      0.94010753	      0.17241596	      4.23387642	     -5.34378265	      0.76886978	     17.34159950	      0.30266801	     14.92266414	      6.88827135	     -7.49999987	     54.16180740	     -2.68179316	     -9.74555889	     21.15739939	      0.36926628	    -12.66840864	      2.12580393	     -7.49999987	    -19.49781951	     -8.38042489	      5.43488043	     56.61886249	     21.24165943	     75.86552520	    133.40125689	     97.54296821	     69.88389789	     24.79853536	     72.39932239	    124.15902278	     68.55179460
      7.18333330	      5.78677697	     12.46500566	      0.06494080	     -0.14426488	      0.94261892	      0.17205718	      4.80097185	     -4.92034073	      0.44883691	     17.33118240	      0.30248620	     14.32259422	      6.89573329	     -7.49999987	     54.07930235	     -2.49070888	     -8.67968757	     21.66850139	      0.37818669	    -12.22223662	      2.17285642	     -7.49999987	    -19.08680996	     -7.86590329	      5.22268371	     55.83900917	     21.00279837	     75.72258916	    133.21853390	     94.21203106	     69.31163168	     24.88339921	     72.74316005	    124.51186162	     67.93216901
      7.20000000	      5.38715597	     12.32056777	      0.10463049	     -0.14461233	      0.94203918	      0.17167021	      5.00332779	     -4.82340629	      0.29506536	     16.76050096	      0.29252593	     13.99328798	      6.83619933	     -7.49999987	     54.03502369	     -2.30210188	     -8.18758515	     22.50451466	      0.39277788	    -11.38326116	      2.22073931	     -7.49999987	    -18.56451941	     -7.88814117	      5.07498300	     55.51940094	     20.93557432	     75.22518531	    133.04928244	     94.43235444	     69.25789116	     24.69166400	     72.68196168	    124.47800203	     66.99073777
